<svg width="245" height="80" viewBox="0 0 245 80" fill="none" xmlns="http://www.w3.org/2000/svg">
<mask id="mask0_1504_6923" style="mask-type:alpha" maskUnits="userSpaceOnUse" x="13" y="7" width="54" height="66">
<path fill-rule="evenodd" clip-rule="evenodd" d="M17.7312 72.7618C15.1556 72.7618 13.0676 70.6739 13.0676 68.0982V11.9018C13.0676 9.32614 15.1556 7.23817 17.7312 7.23817H41.1506C48.0187 7.23817 53.8389 9.07621 57.9886 12.8168C62.1949 16.6084 64.2823 21.9946 64.2823 28.1865C64.2823 31.0117 63.3755 33.88 61.905 36.2645C61.4998 36.9215 61.0399 37.5607 60.5277 38.1644C64.4539 41.3852 66.9323 46.3474 66.9323 51.5262C66.9323 57.8372 64.7085 63.29 60.389 67.114C56.1296 70.8846 50.1878 72.7618 43.2427 72.7618H17.7312ZM57.9478 40.5359C56.8379 39.7033 55.5979 39.0409 54.2611 38.5996C55.5244 38.1117 56.6637 37.2857 57.627 36.2502C59.6413 34.085 60.886 31.0043 60.886 28.1865C60.886 17.4862 53.7729 10.7356 41.1506 10.7356H16.4639V69.2644H43.2427C56.0045 69.2644 63.536 62.3702 63.536 51.5262C63.536 47.2472 61.3541 43.0908 57.9478 40.5359ZM32.5522 25.3643V30.9369H40.5927C42.5741 30.9369 43.6191 30.4839 44.1003 30.0947C44.4525 29.81 44.7977 29.3373 44.7977 28.1865C44.7977 27.0311 44.448 26.5286 44.0783 26.2245C43.5927 25.8251 42.5513 25.3643 40.5927 25.3643H32.5522ZM32.5522 48.4167V54.6357H42.6848C44.7541 54.6357 45.967 54.1538 46.583 53.6682C47.0706 53.2839 47.4477 52.707 47.4477 51.5262C47.4477 50.3454 47.0706 49.7685 46.583 49.3842C45.967 48.8986 44.7541 48.4167 42.6848 48.4167H32.5522ZM29.1559 34.4344H40.5927C45.4045 34.4344 48.194 32.28 48.194 28.1865C48.194 24.0931 45.4045 21.8669 40.5927 21.8669H29.1559V34.4344ZM29.1559 58.1331H42.6848C47.7058 58.1331 50.844 55.8351 50.844 51.5262C50.844 47.2173 47.7058 44.9193 42.6848 44.9193H29.1559V58.1331Z" fill="#333333"/>
<path fill-rule="evenodd" clip-rule="evenodd" d="M57.9478 40.5359C56.8379 39.7033 55.5979 39.0409 54.2611 38.5996C55.5244 38.1117 56.6637 37.2857 57.627 36.2502C59.6413 34.085 60.886 31.0043 60.886 28.1865C60.886 17.4862 53.7729 10.7356 41.1506 10.7356H16.4639V69.2644H43.2427C56.0045 69.2644 63.536 62.3702 63.536 51.5262C63.536 47.2472 61.3541 43.0908 57.9478 40.5359ZM40.5927 34.4344C45.4045 34.4344 48.194 32.28 48.194 28.1865C48.194 24.0931 45.4045 21.8669 40.5927 21.8669H29.1559V34.4344H40.5927ZM42.6848 58.1331C47.7058 58.1331 50.844 55.8351 50.844 51.5262C50.844 47.2173 47.7058 44.9193 42.6848 44.9193H29.1559V58.1331H42.6848Z" fill="#333333"/>
<path d="M32.5522 30.9369V25.3643H40.5927C42.5513 25.3643 43.5927 25.8251 44.0783 26.2245C44.448 26.5286 44.7977 27.0311 44.7977 28.1865C44.7977 29.3373 44.4525 29.81 44.1003 30.0947C43.6191 30.4839 42.5741 30.9369 40.5927 30.9369H32.5522Z" fill="#333333"/>
<path d="M32.5522 54.6357V48.4167H42.6848C44.7541 48.4167 45.967 48.8986 46.583 49.3842C47.0706 49.7685 47.4477 50.3454 47.4477 51.5262C47.4477 52.707 47.0706 53.2839 46.583 53.6682C45.967 54.1538 44.7541 54.6357 42.6848 54.6357H32.5522Z" fill="#333333"/>
</mask>
<g mask="url(#mask0_1504_6923)">
<path d="M68.5645 14.5833C68.5645 37.8285 50.9947 53.641 24.1437 53.641C-2.70733 53.641 -28.6716 37.8285 -28.6716 14.5833C-28.6716 -8.6618 -6.90457 -27.5057 19.9465 -27.5057C46.7975 -27.5057 68.5645 -8.6618 68.5645 14.5833Z" fill="url(#paint0_radial_1504_6923)"/>
<path d="M72.8784 66.2328C72.8784 88.9628 52.7817 107.389 27.9912 107.389C3.20069 107.389 -16.896 88.9628 -16.896 66.2328C-16.896 43.5028 2.96751 25.5428 27.758 25.5428C52.5485 25.5428 72.8784 43.5028 72.8784 66.2328Z" fill="url(#paint1_radial_1504_6923)"/>
</g>
<g filter="url(#filter0_b_1504_6923)">
<rect x="19.7389" y="17.9644" width="22.8747" height="21.5873" rx="4.6636" fill="#F2F2F2" fill-opacity="0.4"/>
<rect x="19.7389" y="45.8479" width="22.8747" height="3.59789" rx="1.79894" fill="#F2F2F2" fill-opacity="0.4"/>
<rect x="19.7389" y="52.1442" width="35.6105" height="3.59789" rx="1.79894" fill="#F2F2F2" fill-opacity="0.4"/>
<rect x="19.7389" y="58.4407" width="35.6105" height="3.59789" rx="1.79894" fill="#F2F2F2" fill-opacity="0.4"/>
</g>
<path d="M79.361 58.7012H97.2862C105.829 58.7012 110.87 54.2199 110.87 47.1712C110.87 43.4835 108.303 39.9358 104.662 38.7688C107.276 37.7885 109.096 34.7076 109.096 32.0002C109.096 25.0448 104.335 20.6569 95.8858 20.6569H79.361V58.7012ZM87.8568 36.0613V27.8923H95.5123C98.7332 27.8923 100.6 29.3394 100.6 32.0002C100.6 34.6609 98.7332 36.0613 95.5123 36.0613H87.8568ZM87.8568 51.4658V42.8766H96.9127C100.274 42.8766 102.374 44.3704 102.374 47.1712C102.374 49.972 100.274 51.4658 96.9127 51.4658H87.8568ZM125.445 59.3547C128.946 59.3547 131.467 58.0944 133.1 55.9004V58.7012H141.41V31.3466H133.1V45.3974C133.1 49.6453 131.14 52.2127 127.872 52.2127C124.745 52.2127 123.064 49.9253 123.064 45.7708V31.3466H114.755V47.1712C114.755 54.7334 119.096 59.3547 125.445 59.3547ZM156.827 51.6525L170.365 36.9016V31.3466H146.184V38.3953H159.115L145.578 53.1463V58.7012H171.252V51.6525H156.827ZM184.214 51.6525L197.751 36.9016V31.3466H173.571V38.3953H186.501L172.964 53.1463V58.7012H198.638V51.6525H184.214ZM210.293 19.4899H201.984V58.7012H210.293V19.4899ZM228.896 59.3547C235.525 59.3547 240.893 55.7604 242.293 50.5322H233.938C233.237 51.8392 231.277 52.6795 228.896 52.6795C225.769 52.6795 223.575 50.8589 222.921 47.6847H242.947C243.087 46.7044 243.134 45.8175 243.134 45.0239C243.134 36.6682 237.252 30.6931 228.896 30.6931C220.54 30.6931 214.659 36.7149 214.659 45.0239C214.659 53.3797 220.54 59.3547 228.896 59.3547ZM222.874 42.3165C223.575 39.0489 225.629 37.275 228.896 37.275C232.164 37.275 234.311 39.0489 235.011 42.3165H222.874Z" fill="white"/>
<defs>
<filter id="filter0_b_1504_6923" x="18.8062" y="17.0317" width="37.4759" height="45.9396" filterUnits="userSpaceOnUse" color-interpolation-filters="sRGB">
<feFlood flood-opacity="0" result="BackgroundImageFix"/>
<feGaussianBlur in="BackgroundImageFix" stdDeviation="0.46636"/>
<feComposite in2="SourceAlpha" operator="in" result="effect1_backgroundBlur_1504_6923"/>
<feBlend mode="normal" in="SourceGraphic" in2="effect1_backgroundBlur_1504_6923" result="shape"/>
</filter>
<radialGradient id="paint0_radial_1504_6923" cx="0" cy="0" r="1" gradientUnits="userSpaceOnUse" gradientTransform="translate(10.4753 8.89858) rotate(39.6876) scale(55.4655 54.5635)">
<stop stop-color="#6174FB"/>
<stop offset="1" stop-color="#2838A9" stop-opacity="0.57"/>
</radialGradient>
<radialGradient id="paint1_radial_1504_6923" cx="0" cy="0" r="1" gradientUnits="userSpaceOnUse" gradientTransform="translate(14.4667 71.7125) rotate(-33.4228) scale(55.4573 51.9857)">
<stop stop-color="#B23AFB"/>
<stop offset="1" stop-color="#38BAF2" stop-opacity="0.52"/>
</radialGradient>
</defs>
</svg>
