<svg width="20" height="20" viewBox="0 0 20 20" fill="none" xmlns="http://www.w3.org/2000/svg">
<path d="M17.5003 5.00001H13.3337V3.60834C13.3141 3.07486 13.0838 2.57089 12.6933 2.20692C12.3028 1.84295 11.7839 1.64867 11.2503 1.66668H8.75033C8.21679 1.64867 7.69788 1.84295 7.30735 2.20692C6.91682 2.57089 6.68654 3.07486 6.66699 3.60834V5.00001H2.50033C2.27931 5.00001 2.06735 5.08781 1.91107 5.24409C1.75479 5.40037 1.66699 5.61233 1.66699 5.83334C1.66699 6.05436 1.75479 6.26632 1.91107 6.4226C2.06735 6.57888 2.27931 6.66668 2.50033 6.66668H3.33366V15.8333C3.33366 16.4964 3.59705 17.1323 4.06589 17.6011C4.53473 18.07 5.17062 18.3333 5.83366 18.3333H14.167C14.83 18.3333 15.4659 18.07 15.9348 17.6011C16.4036 17.1323 16.667 16.4964 16.667 15.8333V6.66668H17.5003C17.7213 6.66668 17.9333 6.57888 18.0896 6.4226C18.2459 6.26632 18.3337 6.05436 18.3337 5.83334C18.3337 5.61233 18.2459 5.40037 18.0896 5.24409C17.9333 5.08781 17.7213 5.00001 17.5003 5.00001ZM8.33366 3.60834C8.33366 3.47501 8.50866 3.33334 8.75033 3.33334H11.2503C11.492 3.33334 11.667 3.47501 11.667 3.60834V5.00001H8.33366V3.60834ZM15.0003 15.8333C15.0003 16.0544 14.9125 16.2663 14.7562 16.4226C14.6 16.5789 14.388 16.6667 14.167 16.6667H5.83366C5.61265 16.6667 5.40068 16.5789 5.2444 16.4226C5.08812 16.2663 5.00033 16.0544 5.00033 15.8333V6.66668H15.0003V15.8333Z" fill="#B0B0B0"/>
<path d="M7.50033 14.1667C7.72134 14.1667 7.9333 14.0789 8.08958 13.9226C8.24586 13.7663 8.33366 13.5543 8.33366 13.3333V9.99999C8.33366 9.77898 8.24586 9.56701 8.08958 9.41073C7.9333 9.25445 7.72134 9.16666 7.50033 9.16666C7.27931 9.16666 7.06735 9.25445 6.91107 9.41073C6.75479 9.56701 6.66699 9.77898 6.66699 9.99999V13.3333C6.66699 13.5543 6.75479 13.7663 6.91107 13.9226C7.06735 14.0789 7.27931 14.1667 7.50033 14.1667Z" fill="#B0B0B0"/>
<path d="M12.5003 14.1667C12.7213 14.1667 12.9333 14.0789 13.0896 13.9226C13.2459 13.7663 13.3337 13.5543 13.3337 13.3333V9.99999C13.3337 9.77898 13.2459 9.56701 13.0896 9.41073C12.9333 9.25445 12.7213 9.16666 12.5003 9.16666C12.2793 9.16666 12.0674 9.25445 11.9111 9.41073C11.7548 9.56701 11.667 9.77898 11.667 9.99999V13.3333C11.667 13.5543 11.7548 13.7663 11.9111 13.9226C12.0674 14.0789 12.2793 14.1667 12.5003 14.1667Z" fill="#B0B0B0"/>
</svg>
