<svg width="246" height="80" viewBox="0 0 246 80" fill="none" xmlns="http://www.w3.org/2000/svg">
<mask id="mask0_275_1230" style="mask-type:alpha" maskUnits="userSpaceOnUse" x="13" y="7" width="55" height="66">
<path fill-rule="evenodd" clip-rule="evenodd" d="M18.2312 72.7618C15.6556 72.7618 13.5676 70.6739 13.5676 68.0982V11.9018C13.5676 9.32614 15.6556 7.23817 18.2312 7.23817H41.6506C48.5187 7.23817 54.3389 9.07621 58.4886 12.8168C62.6949 16.6084 64.7823 21.9946 64.7823 28.1865C64.7823 31.0117 63.8755 33.88 62.405 36.2645C61.9998 36.9215 61.5399 37.5607 61.0277 38.1644C64.9539 41.3852 67.4323 46.3474 67.4323 51.5262C67.4323 57.8372 65.2085 63.29 60.889 67.114C56.6296 70.8846 50.6878 72.7618 43.7427 72.7618H18.2312ZM58.4478 40.5359C57.3379 39.7033 56.0979 39.0409 54.7611 38.5996C56.0244 38.1117 57.1637 37.2857 58.127 36.2502C60.1413 34.085 61.386 31.0043 61.386 28.1865C61.386 17.4862 54.2729 10.7356 41.6506 10.7356H16.9639V69.2644H43.7427C56.5045 69.2644 64.036 62.3702 64.036 51.5262C64.036 47.2472 61.8541 43.0908 58.4478 40.5359ZM33.0522 25.3643V30.9369H41.0927C43.0741 30.9369 44.1191 30.4839 44.6003 30.0947C44.9525 29.81 45.2977 29.3373 45.2977 28.1865C45.2977 27.0311 44.948 26.5286 44.5783 26.2245C44.0927 25.8251 43.0513 25.3643 41.0927 25.3643H33.0522ZM33.0522 48.4167V54.6357H43.1848C45.2541 54.6357 46.467 54.1538 47.083 53.6682C47.5706 53.2839 47.9477 52.707 47.9477 51.5262C47.9477 50.3454 47.5706 49.7685 47.083 49.3842C46.467 48.8986 45.2541 48.4167 43.1848 48.4167H33.0522ZM29.6559 34.4344H41.0927C45.9045 34.4344 48.694 32.28 48.694 28.1865C48.694 24.0931 45.9045 21.8669 41.0927 21.8669H29.6559V34.4344ZM29.6559 58.1331H43.1848C48.2058 58.1331 51.344 55.8351 51.344 51.5262C51.344 47.2173 48.2058 44.9193 43.1848 44.9193H29.6559V58.1331Z" fill="#333333"/>
<path fill-rule="evenodd" clip-rule="evenodd" d="M58.4478 40.5359C57.3379 39.7033 56.0979 39.0409 54.7611 38.5996C56.0244 38.1117 57.1637 37.2857 58.127 36.2502C60.1413 34.085 61.386 31.0043 61.386 28.1865C61.386 17.4862 54.2729 10.7356 41.6506 10.7356H16.9639V69.2644H43.7427C56.5045 69.2644 64.036 62.3702 64.036 51.5262C64.036 47.2472 61.8541 43.0908 58.4478 40.5359ZM41.0927 34.4344C45.9045 34.4344 48.694 32.28 48.694 28.1865C48.694 24.0931 45.9045 21.8669 41.0927 21.8669H29.6559V34.4344H41.0927ZM43.1848 58.1331C48.2058 58.1331 51.344 55.8351 51.344 51.5262C51.344 47.2173 48.2058 44.9193 43.1848 44.9193H29.6559V58.1331H43.1848Z" fill="#333333"/>
<path d="M33.0522 30.9369V25.3643H41.0927C43.0513 25.3643 44.0927 25.8251 44.5783 26.2245C44.948 26.5286 45.2977 27.0311 45.2977 28.1865C45.2977 29.3373 44.9525 29.81 44.6003 30.0947C44.1191 30.4839 43.0741 30.9369 41.0927 30.9369H33.0522Z" fill="#333333"/>
<path d="M33.0522 54.6357V48.4167H43.1848C45.2541 48.4167 46.467 48.8986 47.083 49.3842C47.5706 49.7685 47.9477 50.3454 47.9477 51.5262C47.9477 52.707 47.5706 53.2839 47.083 53.6682C46.467 54.1538 45.2541 54.6357 43.1848 54.6357H33.0522Z" fill="#333333"/>
</mask>
<g mask="url(#mask0_275_1230)">
<path d="M69.0645 14.5833C69.0645 37.8285 51.4947 53.641 24.6437 53.641C-2.20733 53.641 -28.1716 37.8285 -28.1716 14.5833C-28.1716 -8.6618 -6.40457 -27.5057 20.4465 -27.5057C47.2975 -27.5057 69.0645 -8.6618 69.0645 14.5833Z" fill="url(#paint0_radial_275_1230)"/>
<path d="M73.3784 66.2328C73.3784 88.9628 53.2817 107.389 28.4912 107.389C3.70069 107.389 -16.396 88.9628 -16.396 66.2328C-16.396 43.5028 3.46751 25.5428 28.258 25.5428C53.0485 25.5428 73.3784 43.5028 73.3784 66.2328Z" fill="url(#paint1_radial_275_1230)"/>
</g>
<g filter="url(#filter0_b_275_1230)">
<rect x="20.2389" y="17.9644" width="22.8747" height="21.5873" rx="4.6636" fill="#F2F2F2" fill-opacity="0.4"/>
<rect x="20.2389" y="45.8479" width="22.8747" height="3.59789" rx="1.79894" fill="#F2F2F2" fill-opacity="0.4"/>
<rect x="20.2389" y="52.1442" width="35.6105" height="3.59789" rx="1.79894" fill="#F2F2F2" fill-opacity="0.4"/>
<rect x="20.2389" y="58.4407" width="35.6105" height="3.59789" rx="1.79894" fill="#F2F2F2" fill-opacity="0.4"/>
</g>
<path d="M79.861 58.7012H97.7862C106.329 58.7012 111.37 54.2199 111.37 47.1712C111.37 43.4835 108.803 39.9358 105.162 38.7688C107.776 37.7885 109.596 34.7076 109.596 32.0002C109.596 25.0448 104.835 20.6569 96.3858 20.6569H79.861V58.7012ZM88.3568 36.0613V27.8923H96.0123C99.2332 27.8923 101.1 29.3394 101.1 32.0002C101.1 34.6609 99.2332 36.0613 96.0123 36.0613H88.3568ZM88.3568 51.4658V42.8766H97.4127C100.774 42.8766 102.874 44.3704 102.874 47.1712C102.874 49.972 100.774 51.4658 97.4127 51.4658H88.3568ZM125.945 59.3547C129.446 59.3547 131.967 58.0944 133.6 55.9004V58.7012H141.91V31.3466H133.6V45.3974C133.6 49.6453 131.64 52.2127 128.372 52.2127C125.245 52.2127 123.564 49.9253 123.564 45.7708V31.3466H115.255V47.1712C115.255 54.7334 119.596 59.3547 125.945 59.3547ZM157.327 51.6525L170.865 36.9016V31.3466H146.684V38.3953H159.615L146.078 53.1463V58.7012H171.752V51.6525H157.327ZM184.714 51.6525L198.251 36.9016V31.3466H174.071V38.3953H187.001L173.464 53.1463V58.7012H199.138V51.6525H184.714ZM210.793 19.4899H202.484V58.7012H210.793V19.4899ZM229.396 59.3547C236.025 59.3547 241.393 55.7604 242.793 50.5322H234.438C233.737 51.8392 231.777 52.6795 229.396 52.6795C226.269 52.6795 224.075 50.8589 223.421 47.6847H243.447C243.587 46.7044 243.634 45.8175 243.634 45.0239C243.634 36.6682 237.752 30.6931 229.396 30.6931C221.04 30.6931 215.159 36.7149 215.159 45.0239C215.159 53.3797 221.04 59.3547 229.396 59.3547ZM223.374 42.3165C224.075 39.0489 226.129 37.275 229.396 37.275C232.664 37.275 234.811 39.0489 235.511 42.3165H223.374Z" fill="#333333"/>
<defs>
<filter id="filter0_b_275_1230" x="19.3062" y="17.0317" width="37.4759" height="45.9396" filterUnits="userSpaceOnUse" color-interpolation-filters="sRGB">
<feFlood flood-opacity="0" result="BackgroundImageFix"/>
<feGaussianBlur in="BackgroundImageFix" stdDeviation="0.46636"/>
<feComposite in2="SourceAlpha" operator="in" result="effect1_backgroundBlur_275_1230"/>
<feBlend mode="normal" in="SourceGraphic" in2="effect1_backgroundBlur_275_1230" result="shape"/>
</filter>
<radialGradient id="paint0_radial_275_1230" cx="0" cy="0" r="1" gradientUnits="userSpaceOnUse" gradientTransform="translate(10.9753 8.89858) rotate(39.6876) scale(55.4655 54.5635)">
<stop stop-color="#6174FB"/>
<stop offset="1" stop-color="#2838A9" stop-opacity="0.57"/>
</radialGradient>
<radialGradient id="paint1_radial_275_1230" cx="0" cy="0" r="1" gradientUnits="userSpaceOnUse" gradientTransform="translate(14.9667 71.7125) rotate(-33.4228) scale(55.4573 51.9857)">
<stop stop-color="#B23AFB"/>
<stop offset="1" stop-color="#38BAF2" stop-opacity="0.52"/>
</radialGradient>
</defs>
</svg>
